<?xml version="1.0" standalone="no"?>
<!DOCTYPE svg PUBLIC "-//W3C//DTD SVG 20010904//EN"
 "http://www.w3.org/TR/2001/REC-SVG-20010904/DTD/svg10.dtd">
<svg version="1.0" xmlns="http://www.w3.org/2000/svg"
 width="512.000000pt" height="512.000000pt" viewBox="0 0 512.000000 512.000000"
 preserveAspectRatio="xMidYMid meet">
<metadata>
Created by potrace 1.14, written by Peter Selinger 2001-2017
</metadata>
<g transform="translate(0.000000,512.000000) scale(0.100000,-0.100000)"
fill="#000000" stroke="none">
<path d="M2560 4293 c-30 -2 -278 -4 -550 -6 -466 -3 -501 -4 -602 -25 -549
-114 -990 -453 -1233 -947 -30 -62 -55 -119 -55 -128 0 -9 -4 -18 -9 -21 -5
-3 -11 -16 -14 -28 -3 -13 -15 -54 -26 -93 -12 -38 -24 -83 -27 -100 -2 -16
-9 -46 -14 -65 -16 -61 -25 -170 -25 -315 0 -172 7 -243 39 -390 37 -175 133
-401 232 -550 57 -85 66 -98 131 -176 284 -345 730 -578 1177 -614 65 -5 1906
-5 1956 0 48 5 103 12 160 21 123 20 333 91 464 156 73 37 224 130 251 155 11
10 31 25 45 34 88 57 274 260 367 399 103 154 211 393 237 525 2 11 9 40 15
65 54 218 49 555 -14 800 -120 475 -460 896 -900 1117 -130 65 -312 129 -420
147 -16 3 -41 8 -55 11 -67 13 -94 16 -205 21 -121 6 -824 11 -925 7z"/>
</g>
</svg>
